<?xml version="1.0" encoding="UTF-8"?>
<svg width="80px" height="92px" viewBox="0 0 80 92" version="1.1" xmlns="http://www.w3.org/2000/svg" xmlns:xlink="http://www.w3.org/1999/xlink">
    <!-- Generator: Sketch 47.1 (45422) - http://www.bohemiancoding.com/sketch -->
    <title>Combined Shape</title>
    <desc>Created with Sketch.</desc>
    <defs></defs>
    <g id="Page-1" stroke="none" stroke-width="1" fill="none" fill-rule="evenodd">
        <g id="icons" transform="translate(-1564.000000, -1197.000000)" fill="#081F32">
            <path d="M1590.87754,1286.68788 C1595.98973,1288.1926 1601.40058,1289 1607,1289 C1612.54998,1289 1617.9147,1288.2068 1622.98698,1286.72757 C1621.73669,1286.27164 1621.24806,1285.09265 1621.24806,1284.03773 C1621.24806,1282.13099 1621.31517,1275.89694 1621.31517,1268.15112 C1621.31517,1262.75013 1619.46499,1259.22712 1617.38857,1257.43062 C1630.27943,1255.99745 1643.82217,1251.10167 1643.82217,1228.86692 C1643.82217,1222.54659 1641.57607,1217.38239 1637.8642,1213.32829 C1638.46527,1211.8702 1640.44775,1205.98222 1637.29669,1198.00823 C1637.29669,1198.00823 1632.44213,1196.45236 1621.39282,1203.94223 C1616.76641,1202.65956 1611.81023,1202.01632 1606.89048,1201.99427 C1601.97073,1202.01632 1597.01838,1202.65956 1592.4006,1203.94223 C1581.33787,1196.45236 1576.4766,1198.00823 1576.4766,1198.00823 C1573.33321,1205.98222 1575.31473,1211.8702 1575.91579,1213.32829 C1572.21256,1217.38239 1569.95112,1222.54659 1569.95112,1228.86692 C1569.95112,1251.04894 1583.46798,1256.01279 1596.32624,1257.47664 C1594.67067,1258.92227 1593.17039,1261.47609 1592.65081,1265.21767 C1589.34733,1266.69686 1580.96784,1269.25547 1575.80459,1260.40529 C1575.80459,1260.40529 1572.74365,1254.84804 1566.93044,1254.43966 C1566.93044,1254.43966 1561.28212,1254.36584 1566.53452,1257.95883 C1566.53452,1257.95883 1570.32883,1259.73807 1572.96222,1266.42939 C1572.96222,1266.42939 1576.3606,1276.76164 1592.46579,1273.25972 C1592.49072,1278.09703 1592.5444,1282.65729 1592.5444,1284.03773 C1592.5444,1285.06368 1592.0662,1286.20789 1590.87754,1286.68788 Z" id="Combined-Shape"></path>
        </g>
    </g>
</svg>