<?xml version="1.0" encoding="UTF-8"?>
<svg width="100px" height="102px" viewBox="0 0 100 102" version="1.1" xmlns="http://www.w3.org/2000/svg" xmlns:xlink="http://www.w3.org/1999/xlink">
    <!-- Generator: Sketch 47.1 (45422) - http://www.bohemiancoding.com/sketch -->
    <title>stoveIcon2</title>
    <desc>Created with Sketch.</desc>
    <defs></defs>
    <g id="Page-1" stroke="none" stroke-width="1" fill="none" fill-rule="evenodd">
        <g id="icons" transform="translate(-1606.000000, -431.000000)">
            <g id="stoveIcon2" transform="translate(1606.000000, 431.000000)">
                <path d="M0,12.0000638 C0,6.47718108 4.47473288,2 10.0000638,2 L89.9999362,2 C95.5228189,2 100,6.47473288 100,12.0000638 L100,97.0067709 C100,99.7644552 97.7711504,102 95.0067709,102 L4.99322906,102 C2.2355448,102 0,99.7711504 0,97.0067709 L0,12.0000638 Z" id="Body" fill="#FFFFFF"></path>
                <g id="Grills" transform="translate(10.000000, 0.000000)" fill="#FFFFFF">
                    <rect id="Grill-L" x="0" y="0" width="30" height="2"></rect>
                    <rect id="Grill-R" x="50" y="0" width="30" height="2"></rect>
                </g>
                <g id="Controls" transform="translate(15.000000, 12.000000)" fill="#081F32">
                    <circle id="Oval-1" cx="5" cy="5" r="5"></circle>
                    <circle id="Oval-2" cx="25" cy="5" r="5"></circle>
                    <circle id="Oval-3" cx="45" cy="5" r="5"></circle>
                    <circle id="Oval-4" cx="65" cy="5" r="5"></circle>
                </g>
                <g id="Oven" transform="translate(15.000000, 37.000000)" stroke="#081F32" stroke-width="2">
                    <rect id="Oven-Rect" x="1" y="1" width="68" height="48" rx="2"></rect>
                    <path d="M7,41.3553391 L42.3553391,6" id="Line-3" stroke-linecap="square"></path>
                    <path d="M9,25.6776695 L26.6776695,8" id="Line-2" stroke-linecap="square"></path>
                    <path d="M8,14.0710678 L15.0710678,7" id="Line-1" stroke-linecap="square"></path>
                </g>
            </g>
        </g>
    </g>
</svg>